<?xml version="1.0" encoding="UTF-8" standalone="no"?>
<svg
   xmlns:dc="http://purl.org/dc/elements/1.1/"
   xmlns:cc="http://creativecommons.org/ns#"
   xmlns:rdf="http://www.w3.org/1999/02/22-rdf-syntax-ns#"
   xmlns:svg="http://www.w3.org/2000/svg"
   xmlns="http://www.w3.org/2000/svg"
   xmlns:xlink="http://www.w3.org/1999/xlink"
   xmlns:sodipodi="http://sodipodi.sourceforge.net/DTD/sodipodi-0.dtd"
   xmlns:inkscape="http://www.inkscape.org/namespaces/inkscape"
   inkscape:export-ydpi="650.23999"
   inkscape:export-xdpi="650.23999"
   inkscape:export-filename="D:\Downloads\sis-icon.png"
   sodipodi:docname="icon.svg"
   inkscape:version="1.0 (4035a4fb49, 2020-05-01)"
   id="svg8"
   version="1.1"
   viewBox="0 0 20 20"
   height="20mm"
   width="20mm">
  <defs
     id="defs2">
    <linearGradient
       id="linearGradient860"
       inkscape:collect="always">
      <stop
         id="stop856"
         offset="0"
         style="stop-color:#1f4789;stop-opacity:1" />
      <stop
         id="stop858"
         offset="1"
         style="stop-color:#3f91d3;stop-opacity:1" />
    </linearGradient>
    <linearGradient
       gradientTransform="matrix(1.1124799,0,0,1.1143863,-0.25256602,-0.32763616)"
       gradientUnits="userSpaceOnUse"
       y2="2.8642952"
       x2="20.245434"
       y1="20.864296"
       x1="2.2454331"
       id="linearGradient862"
       xlink:href="#linearGradient860"
       inkscape:collect="always" />
  </defs>
  <sodipodi:namedview
     inkscape:window-maximized="1"
     inkscape:window-y="-8"
     inkscape:window-x="-8"
     inkscape:window-height="1017"
     inkscape:window-width="1920"
     fit-margin-bottom="0"
     fit-margin-right="0"
     fit-margin-left="0"
     fit-margin-top="0"
     showgrid="false"
     inkscape:document-rotation="0"
     inkscape:current-layer="layer1"
     inkscape:document-units="mm"
     inkscape:cy="36.418676"
     inkscape:cx="33.015017"
     inkscape:zoom="7.7102273"
     inkscape:pageshadow="2"
     inkscape:pageopacity="0.0"
     borderopacity="1.0"
     bordercolor="#666666"
     pagecolor="#ffffff"
     id="base" />
  <metadata
     id="metadata5">
    <rdf:RDF>
      <cc:Work
         rdf:about="">
        <dc:format>image/svg+xml</dc:format>
        <dc:type
           rdf:resource="http://purl.org/dc/dcmitype/StillImage" />
        <dc:title></dc:title>
      </cc:Work>
    </rdf:RDF>
  </metadata>
  <g
     style="display:inline"
     transform="translate(-2.2454331,-2.8642952)"
     id="layer1"
     inkscape:groupmode="layer"
     inkscape:label="Vrstva 1">
    <rect
       y="2.8642952"
       x="2.2454331"
       height="20"
       width="20"
       id="rect853"
       style="opacity:0.987;fill:url(#linearGradient862);fill-opacity:1;stroke-width:0;stroke-linejoin:bevel" />
    <g
       transform="matrix(0.0614229,0,0,0.0614229,5.6424714,16.088997)"
       id="group">
      <path
         fill="#ffffff"
         d="M 39.281,2 Q 27.922,2 19.969,-0.391 12.016,-2.781 5,-6.281 V -24 h 0.984 q 6.922,6.672 15.672,10.344 Q 30.422,-10 38.547,-10 50.141,-10 56.063,-14.844 62,-19.703 62,-27.641 q 0,-6.297 -3.172,-10.265 -3.172,-3.969 -10.078,-5.875 -4.812,-1.407 -8.797,-2.328 -3.984,-0.922 -9.984,-2.469 -5.375,-1.406 -9.641,-3.594 -4.265,-2.203 -7.547,-5.734 -3.218,-3.453 -5,-8.157 Q 6,-70.766 6,-76.906 6,-89.688 15.859,-98.344 25.719,-107 41.031,-107 q 8.735,0 16.532,1.734 7.796,1.719 14.437,4.891 V -84 h -1.062 q -5,-4.406 -12.829,-7.703 Q 50.297,-95 41.703,-95 31.984,-95 25.984,-90.422 20,-85.859 20,-78.438 q 0,6.735 3.594,10.704 3.594,3.953 10.422,5.796 4.406,1.204 10.765,2.735 6.36,1.515 10.547,2.781 10.75,3.313 15.703,10.031 4.969,6.719 4.969,16.532 0,6.14 -2.484,12.156 -2.485,6 -6.985,10.172 -5.047,4.593 -11.39,7.062 Q 48.813,2 39.281,2 Z"
         id="path" />
      <path
         fill="#ffffff"
         d="M 127,0 H 87 v -11 h 13 V -94 H 87 v -11 h 40 v 11 h -13 v 83 h 13 z"
         id="path_1" />
      <path
         fill="#ffffff"
         d="M 173.281,2 Q 161.922,2 153.969,-0.391 146.016,-2.781 139,-6.281 V -24 h 0.984 q 6.922,6.672 15.672,10.344 8.766,3.656 16.891,3.656 11.594,0 17.516,-4.844 5.937,-4.859 5.937,-12.797 0,-6.297 -3.172,-10.265 -3.172,-3.969 -10.078,-5.875 -4.812,-1.407 -8.797,-2.328 -3.984,-0.922 -9.984,-2.469 -5.375,-1.406 -9.641,-3.594 -4.265,-2.203 -7.547,-5.734 -3.218,-3.453 -5,-8.157 Q 140,-70.766 140,-76.906 q 0,-12.782 9.859,-21.438 9.86,-8.656 25.172,-8.656 8.735,0 16.532,1.734 7.796,1.719 14.437,4.891 V -84 h -1.062 q -5,-4.406 -12.829,-7.703 Q 184.297,-95 175.703,-95 q -9.719,0 -15.719,4.578 -5.984,4.563 -5.984,11.984 0,6.735 3.594,10.704 3.594,3.953 10.422,5.796 4.406,1.204 10.765,2.735 6.36,1.515 10.547,2.781 10.75,3.313 15.703,10.031 4.969,6.719 4.969,16.532 0,6.14 -2.484,12.156 -2.485,6 -6.985,10.172 -5.047,4.593 -11.39,7.062 Q 182.813,2 173.281,2 Z"
         id="path_2" />
    </g>
  </g>
</svg>
